Coordinates
version=1
nRows=12
nColumns=24
inDegrees=yes

Units are S.I. units (second, meters, Newtons, ...)
Angles are in degrees.

endheader
time	pelvis_tilt	pelvis_list	pelvis_rotation	pelvis_tx	pelvis_ty	pelvis_tz	hip_flexion_r	hip_adduction_r	hip_rotation_r	knee_angle_r	ankle_angle_r	subtalar_angle_r	mtp_angle_r	hip_flexion_l	hip_adduction_l	hip_rotation_l	knee_angle_l	ankle_angle_l	subtalar_angle_l	mtp_angle_l	lumbar_extension	lumbar_bending	lumbar_rotation
      3.23000000	      2.91618599	     -2.94118637	      5.27112318	      0.02167429	      1.00511409	      0.04673214	      5.20649976	      4.79230710	    -20.14688540	    -13.82060977	     11.07873056	      0.00000000	      0.00000000	     16.32604356	     -7.35106297	     -4.00706061	    -69.86192100	      8.91525903	      0.00000000	      0.00000000	    -19.86309614	      5.16398541	     -0.73197174
      3.24000000	      2.74797556	     -2.79743181	      5.44804937	      0.02055531	      1.00598763	      0.04706025	      4.57281939	      4.78713020	    -20.37486246	    -13.05480226	     10.86422513	      0.00000000	      0.00000000	     17.58265461	     -7.24059904	     -4.12257404	    -69.98284381	      9.49115954	      0.00000000	      0.00000000	    -19.69137538	      5.01335348	     -0.75231760
      3.25000000	      2.59979695	     -2.57742324	      5.55204436	      0.01940250	      1.00684419	      0.04741647	      3.92367120	      4.70808962	    -20.44348964	    -12.32079601	     10.85616668	      0.00000000	      0.00000000	     18.69945119	     -7.06046074	     -4.35105575	    -69.76986890	      9.91749007	      0.00000000	      0.00000000	    -19.57084583	      4.75884693	     -0.72247216
      3.26000000	      2.43983045	     -2.36510952	      5.66433211	      0.01819294	      1.00757591	      0.04766333	      3.28963069	      4.63202800	    -20.48188764	    -11.59182525	     10.86216570	      0.00000000	      0.00000000	     19.76432294	     -6.86549543	     -4.56878638	    -69.30436807	     10.36238217	      0.00000000	      0.00000000	    -19.44748688	      4.51475997	     -0.68641043
      3.27000000	      2.27107521	     -2.16729517	      5.79935650	      0.01693783	      1.00812021	      0.04780337	      2.66798504	      4.56859311	    -20.51249278	    -10.85619999	     10.82512867	      0.00000000	      0.00000000	     20.79394693	     -6.65742093	     -4.75459445	    -68.63273622	     10.86508659	      0.00000000	      0.00000000	    -19.32660412	      4.29647545	     -0.67746008
      3.28000000	      2.12793627	     -2.01317556	      6.00304229	      0.01566497	      1.00858140	      0.04776446	      1.99537300	      4.55877402	    -20.64206346	    -10.04720278	     10.60028821	      0.00000000	      0.00000000	     21.74050385	     -6.44160979	     -4.83798615	    -67.72516878	     11.50219983	      0.00000000	      0.00000000	    -19.23988561	      4.14580320	     -0.70919475
      3.29000000	      1.95113261	     -1.83976973	      6.11292922	      0.01433445	      1.00881951	      0.04772637	      1.41011672	      4.50978227	    -20.55014934	     -9.34908464	     10.71368507	      0.00000000	      0.00000000	     22.63798025	     -6.21704931	     -5.02264902	    -66.59444762	     11.92910751	      0.00000000	      0.00000000	    -19.14016492	      3.95920413	     -0.66038631
      3.30000000	      1.81221282	     -1.67155173	      6.24752970	      0.01301697	      1.00896573	      0.04757124	      0.81267405	      4.45757178	    -20.51361235	     -8.70435385	     10.68652509	      0.00000000	      0.00000000	     23.39880063	     -5.95860943	     -5.14667315	    -65.20515157	     12.46144105	      0.00000000	      0.00000000	    -19.09450684	      3.78404766	     -0.62322786
      3.31000000	      1.68340138	     -1.53101493	      6.36382828	      0.01165604	      1.00895177	      0.04736423	      0.24419169	      4.42704767	    -20.43079481	     -8.12141586	     10.76902155	      0.00000000	      0.00000000	     24.08720887	     -5.72521471	     -5.27105152	    -63.62016607	     12.84367851	      0.00000000	      0.00000000	    -19.07587677	      3.64342334	     -0.56142036
      3.32000000	      1.53877390	     -1.43552848	      6.45546637	      0.01026703	      1.00872488	      0.04714987	     -0.25283549	      4.43061328	    -20.31815172	     -7.62931167	     10.93495419	      0.00000000	      0.00000000	     24.72851226	     -5.53285666	     -5.38061909	    -61.84949758	     13.08611613	      0.00000000	      0.00000000	    -19.04703660	      3.53615223	     -0.49633873
      3.33000000	      1.42939169	     -1.52101988	      6.55013153	      0.00868138	      1.00831922	      0.04685526	     -0.59789790	      4.57550553	    -20.24236090	     -7.48673056	     11.08831158	      0.00000000	      0.00000000	     25.33336973	     -5.50877835	     -5.35629551	    -59.95108029	     13.14082948	      0.00000000	      0.00000000	    -19.08641517	      3.64686083	     -0.36337702
      3.34000000	      1.42138405	     -1.17751953	      6.54618568	      0.00742178	      1.00817832	      0.04657248	     -1.23606689	      4.31192530	    -20.10596132	     -7.05588682	     11.37787168	      0.00000000	      0.00000000	     25.48650483	     -5.05951361	     -5.58352356	    -57.55237043	     13.09115085	      0.00000000	      0.00000000	    -19.26465825	      3.25162310	     -0.32612683
